<svg xmlns="http://www.w3.org/2000/svg" xmlns:xlink="http://www.w3.org/1999/xlink" version="1.1" id="Layer_1" x="0px" y="0px" width="24px" height="18px" viewBox="0 0 24 18" xml:space="preserve" enable-background="new 0 0 24 18"><metadata><xpacket/><x:xmpmeta xmlns:x="adobe:ns:meta/" x:xmptk="Adobe XMP Core 5.6-c067 79.157747, 2015/03/30-23:40:42        "><rdf:RDF xmlns:rdf="http://www.w3.org/1999/02/22-rdf-syntax-ns#"><rdf:Description rdf:about=""/></rdf:RDF></x:xmpmeta><xpacket/></metadata><g><defs><rect id="SVGID_1_" width="24" height="18"/></defs><clipPath id="SVGID_2_"><use xlink:href="#SVGID_1_" overflow="visible"/></clipPath><path d="M15.2 0c-0.5 0-0.8 0.4-0.8 0.8 0 0.2 0 0.4 0.2 0.6l6.7 6.8H0.8C0.3 8.2 0 8.5 0 9c0 0.5 0.3 0.8 0.8 0.8h20.5l-6.7 6.7c-0.2 0.2-0.2 0.4-0.2 0.6 0 0.4 0.3 0.8 0.8 0.8 0.2 0 0.4-0.1 0.6-0.2l8-8.1C23.9 9.4 24 9.2 24 9c0-0.3-0.1-0.4-0.3-0.6l-8-8.1C15.5 0.1 15.3 0 15.2 0" style="clip-path:url(#SVGID_2_);fill:#151F25"/></g></svg>